<?xml version="1.0" standalone="no"?>
<!DOCTYPE svg PUBLIC "-//W3C//DTD SVG 20010904//EN"
 "http://www.w3.org/TR/2001/REC-SVG-20010904/DTD/svg10.dtd">
<svg version="1.0" xmlns="http://www.w3.org/2000/svg"
 width="2048.000000pt" height="2048.000000pt" viewBox="0 0 2048.000000 2048.000000"
 preserveAspectRatio="xMidYMid meet">

<g transform="translate(0.000000,2048.000000) scale(0.100000,-0.100000)"
fill="#000000" stroke="none">
<path d="M0 10240 l0 -10240 10240 0 10240 0 0 10240 0 10240 -10240 0 -10240
0 0 -10240z m14080 6280 c134 -10 174 -15 260 -30 30 -5 72 -11 92 -14 233
-34 603 -179 858 -336 399 -245 748 -633 949 -1055 47 -98 138 -328 145 -367
2 -13 13 -55 24 -93 38 -133 53 -217 77 -446 14 -129 15 -561 9 -4029 -3
-2137 -10 -3912 -14 -3945 -5 -36 -6 -8 -2 72 5 131 5 132 -16 126 -19 -4 -22
-1 -22 22 0 16 -9 34 -22 45 -22 18 -23 19 -5 48 9 17 17 33 17 36 0 3 -25 6
-55 6 -45 0 -55 3 -56 18 0 14 -2 14 -9 -3 -7 -17 -9 -16 -10 10 -2 30 -2 30
-10 5 -5 -14 -9 94 -11 250 -1 151 -4 453 -7 670 -2 217 -4 472 -3 565 1 94
-2 212 -5 263 -6 88 -7 92 -29 92 -14 0 -48 21 -81 49 -32 27 -62 47 -68 44
-5 -3 -6 -1 -2 5 8 14 -21 42 -38 36 -8 -3 -17 -1 -21 5 -4 7 1 8 12 4 14 -5
12 0 -7 20 -14 15 -33 27 -42 27 -20 0 -36 -22 -20 -28 12 -4 17 -32 6 -32 -3
0 -15 10 -25 23 l-20 22 6 -22 c7 -27 0 -29 -21 -8 -10 10 -14 28 -11 52 3 32
5 34 11 17 5 -15 14 -20 26 -17 27 7 19 28 -30 78 -37 37 -46 42 -59 32 -14
-10 -14 -10 -4 4 11 13 -3 31 -94 120 -60 59 -108 99 -110 92 -5 -13 -53 37
-53 54 0 17 -98 105 -104 94 -4 -6 -2 -11 5 -11 9 0 10 -3 2 -11 -8 -8 -16 -7
-31 2 -24 15 -35 46 -20 56 7 3 8 1 4 -5 -5 -8 -2 -10 8 -6 12 5 7 14 -21 45
-21 22 -43 37 -50 34 -8 -2 -12 -1 -9 3 8 13 -22 44 -35 36 -7 -4 -10 -3 -6 3
7 11 -16 36 -25 28 -3 -3 -11 2 -19 12 -12 14 -12 16 0 8 10 -6 12 -4 7 4 -5
7 -14 10 -22 7 -7 -3 -11 0 -8 7 4 11 -95 117 -109 117 -3 0 -13 -7 -21 -16
-13 -12 -16 -12 -16 -2 0 8 5 19 12 26 8 8 8 15 -1 26 -12 14 -15 14 -28 0 -9
-8 -28 -18 -44 -21 -18 -3 -42 -21 -60 -44 -25 -31 -33 -36 -44 -26 -7 6 -22
19 -34 27 -22 15 -29 40 -11 40 6 0 10 5 10 12 0 9 -3 9 -12 0 -20 -20 -48
-14 -58 14 -14 36 -35 54 -64 54 -21 0 -25 5 -24 29 1 33 -8 51 -27 51 -10 0
-8 10 8 39 21 39 21 40 3 78 -16 33 -19 35 -26 18 -6 -19 -7 -18 -26 3 -22 26
-54 29 -54 6 0 -11 -5 -14 -16 -10 -9 3 -24 6 -35 6 -10 0 -19 5 -19 10 0 6 3
9 8 9 25 -4 42 3 42 19 0 23 -19 42 -42 42 -13 0 -18 8 -18 28 0 21 9 32 40
49 22 12 40 17 40 12 0 -5 6 -9 14 -9 8 0 18 -5 22 -11 4 -8 0 -9 -15 -4 -11
3 -21 2 -21 -3 0 -15 32 -24 44 -12 14 14 -53 80 -73 72 -10 -4 -13 -1 -8 10
4 11 -11 33 -45 67 -49 50 -52 51 -107 50 -31 0 -50 -3 -43 -6 18 -7 15 -23
-5 -24 -12 -1 -10 -4 7 -9 20 -7 17 -8 -20 -8 -25 0 -39 2 -32 5 20 8 14 23
-10 23 -19 0 -20 2 -8 10 10 7 -26 10 -111 10 -69 0 -181 3 -248 7 -118 6
-122 7 -116 27 4 12 7 26 7 32 2 15 181 24 460 24 l220 0 241 -232 c133 -127
325 -313 427 -413 102 -99 318 -308 480 -465 162 -157 356 -344 430 -417 l135
-132 3 367 2 367 -117 115 c-65 63 -413 408 -774 767 l-657 652 -355 3 c-196
2 -359 6 -363 11 -4 4 -1 15 8 23 13 14 51 17 214 21 211 5 239 8 214 23 -8 5
-18 6 -22 4 -5 -3 -11 2 -14 10 -3 9 -10 16 -14 16 -14 0 -70 60 -57 60 7 0 4
6 -5 13 -20 16 -35 67 -19 67 6 0 11 5 11 10 0 6 -7 10 -15 10 -8 0 -16 5 -16
10 -1 6 -3 15 -4 20 -1 6 -3 14 -4 19 0 4 -44 11 -97 14 -109 6 -124 16 -91
57 21 26 28 27 141 33 66 4 238 7 383 7 l264 0 172 -167 c95 -92 287 -280 427
-418 140 -138 349 -343 465 -455 115 -113 234 -229 263 -257 29 -29 55 -53 58
-53 7 0 3 1704 -5 1818 -3 56 -2 102 3 102 5 0 2 7 -5 16 -12 14 -14 14 -21
-3 -7 -14 -7 -12 -4 7 4 20 -13 42 -107 137 -62 62 -116 113 -121 113 -5 0 -3
-6 3 -14 9 -11 9 -16 0 -22 -7 -4 -9 -3 -6 3 4 6 -1 14 -10 17 -15 6 -15 8 -3
16 11 7 -24 48 -160 185 -96 96 -177 175 -181 175 -4 0 -5 -10 -1 -22 4 -15 2
-19 -7 -13 -7 4 -10 17 -7 29 4 18 -30 57 -197 222 -111 111 -208 199 -215
197 -6 -3 -10 1 -9 9 2 7 2 10 0 6 -3 -5 -11 -8 -19 -8 -9 0 -12 -5 -8 -11 4
-8 0 -9 -15 -4 -12 4 -21 2 -21 -4 0 -6 -5 -11 -11 -11 -7 0 -9 10 -7 25 3 14
1 25 -3 25 -5 0 -9 -9 -9 -20 0 -39 -18 -19 -21 24 -3 32 -1 42 9 39 6 -3 12
-9 12 -14 0 -5 5 -9 10 -9 15 0 12 16 -6 34 -14 15 -14 16 1 16 13 0 14 4 4
22 -19 35 -51 57 -84 58 -45 1 -158 43 -201 76 -82 61 -126 119 -154 204 -18
54 -21 80 -18 155 5 101 25 155 84 237 19 28 34 51 32 53 -8 7 -35 7 -52 0
-11 -5 -21 -3 -26 4 -4 8 -19 10 -41 6 -26 -5 -39 -2 -56 14 -12 12 -29 21
-38 21 -8 0 -15 7 -15 15 0 8 -18 24 -39 34 -21 11 -56 36 -77 56 -24 23 -40
32 -44 24 -5 -7 -13 -3 -24 12 -9 13 -16 20 -16 16 0 -4 -9 -3 -20 3 -11 6
-20 17 -20 24 0 18 -86 76 -112 76 -16 0 -62 52 -65 74 -2 11 1 22 7 26 6 4 3
13 -10 25 -13 12 -20 14 -20 5 0 -7 -8 -10 -20 -7 -11 3 -20 2 -20 -3 0 -12
-54 2 -63 16 -4 7 -14 11 -22 8 -8 -4 -15 -1 -15 5 0 6 -13 11 -30 11 -23 0
-30 4 -30 20 0 11 -7 20 -15 20 -8 0 -23 4 -33 9 -9 5 -25 12 -34 15 -10 3
-18 13 -18 23 -1 27 -25 54 -51 56 -13 1 -41 19 -61 40 -21 20 -42 37 -48 37
-6 0 -18 7 -27 15 -8 9 -23 13 -33 10 -13 -4 -27 5 -47 29 -22 28 -29 32 -33
20 -5 -13 -12 -9 -38 17 -26 27 -35 31 -42 19 -7 -11 -14 -7 -36 18 -33 37
-44 40 -44 11 0 -15 -4 -19 -16 -15 -9 3 -27 9 -40 12 -13 3 -24 10 -24 15 0
5 -18 9 -40 9 -22 0 -40 -4 -40 -10 0 -5 -9 -10 -19 -10 -11 0 -23 5 -26 10
-3 6 1 10 9 10 20 0 20 7 2 26 -20 19 -26 18 -26 -8 l0 -22 -20 21 c-10 12
-28 24 -40 28 -17 5 -20 15 -20 61 0 54 0 54 -31 54 -16 0 -28 4 -24 9 3 6 14
8 24 6 19 -3 49 10 41 19 -3 2 -18 6 -33 8 -15 2 -37 12 -47 21 -19 16 -73 17
-660 17 l-640 0 -4 -22 c-9 -48 -26 -169 -26 -183 0 -8 17 -19 43 -26 23 -6
116 -37 207 -69 331 -118 588 -210 725 -260 77 -29 266 -96 420 -150 154 -55
393 -140 530 -190 138 -50 333 -120 434 -156 241 -84 288 -110 388 -210 137
-137 206 -306 205 -500 0 -120 -18 -195 -93 -381 -28 -70 -73 -189 -99 -263
-26 -74 -87 -241 -135 -370 -48 -129 -141 -386 -207 -570 -117 -327 -156 -437
-348 -959 l-94 -253 14 -67 c12 -54 15 -308 17 -1381 3 -1162 2 -1328 -12
-1425 -46 -316 -222 -611 -475 -797 -26 -20 -37 -23 -37 -13 0 8 7 16 16 16 9
1 1 4 -18 8 -25 4 -40 16 -57 43 -15 24 -19 35 -10 32 8 -3 17 0 22 7 5 8 3
10 -6 4 -9 -6 -11 -4 -6 4 5 7 14 10 22 7 8 -3 13 -1 11 3 -1 5 30 40 69 78
169 165 261 326 316 553 20 83 21 110 24 1265 3 1235 -2 1477 -35 1606 -76
297 -290 560 -567 698 -94 47 -222 87 -319 100 -41 6 -1009 12 -2360 15 -1259
4 -2318 9 -2353 12 -51 5 -62 9 -58 21 3 8 6 32 6 53 0 28 5 40 18 43 9 2 4 3
-11 1 -17 -2 -26 0 -22 6 3 6 31 10 61 10 45 0 54 -3 54 -17 0 -15 -2 -16 -10
-3 -8 12 -10 11 -10 -7 0 -20 5 -23 40 -23 36 0 40 3 40 25 l0 25 895 0 c708
0 896 3 900 13 2 6 29 82 60 167 31 85 91 247 132 360 41 113 116 318 168 455
51 138 114 309 140 380 26 72 60 166 77 210 17 44 49 134 73 200 41 115 94
259 191 518 24 65 44 123 44 128 0 5 -43 9 -95 9 -82 0 -97 -3 -103 -17 -4
-10 -13 -18 -19 -19 -7 -1 -29 -2 -48 -2 -32 -2 -34 -4 -23 -21 10 -17 7 -24
-21 -50 -18 -17 -37 -31 -42 -31 -5 0 -9 -11 -9 -24 0 -30 -9 -56 -21 -56 -16
0 -59 -51 -59 -71 0 -11 -4 -17 -10 -14 -11 7 -50 -52 -50 -77 0 -10 -4 -18
-10 -18 -5 0 -10 -9 -10 -19 0 -11 -5 -23 -11 -27 -8 -5 -8 -8 0 -13 7 -5 5
-19 -9 -46 -16 -30 -20 -34 -20 -17 0 12 -4 22 -9 22 -14 0 -32 -26 -28 -41 2
-8 2 -11 0 -6 -3 4 -11 7 -19 7 -10 0 -14 -12 -14 -37 0 -30 -5 -40 -25 -49
-17 -8 -25 -8 -28 -1 -7 22 -35 -3 -41 -37 -4 -20 -11 -36 -15 -36 -10 0 -21
35 -21 68 0 31 -22 52 -54 52 -18 0 -26 5 -26 18 0 9 -18 37 -40 62 -35 40
-39 42 -40 22 0 -14 -4 -20 -10 -17 -6 4 -10 15 -8 24 2 10 -10 35 -27 56 -29
38 -29 39 -35 15 -6 -25 -12 -22 -43 23 -13 19 -35 25 -134 34 l-63 5 0 33 c0
28 -4 33 -40 45 -37 12 -56 40 -27 40 6 0 -1 12 -18 25 -58 47 -65 55 -71 82
-10 41 -23 53 -58 55 -25 1 -23 2 14 8 43 7 41 7 -25 9 -72 2 -69 17 5 22 53
4 -498 16 -801 18 -304 1 -340 -5 -402 -66 -74 -72 -74 -70 -81 -438 -3 -181
-7 -557 -8 -835 -1 -278 -4 -465 -5 -415 -4 83 -11 104 -35 105 -5 0 -8 -20
-8 -45 0 -25 -4 -45 -8 -45 -22 0 -32 305 -32 933 0 635 1 658 20 711 28 72
87 138 152 167 l53 24 1217 3 c670 1 1262 -1 1315 -5 54 -5 105 -7 114 -5 11
2 33 50 69 150 127 360 139 388 213 488 52 71 111 123 203 179 l65 40 -1 235
-1 235 62 75 c33 41 74 94 91 116 l30 42 799 7 c648 6 799 10 799 21 0 7 10
15 23 18 12 3 -7 4 -43 2 -36 -2 -55 -1 -42 1 50 10 15 33 -49 33 -49 0 -89
18 -68 31 19 11 4 22 -31 22 -16 0 -30 4 -30 9 0 4 -8 8 -18 8 -10 0 -24 9
-32 20 -9 13 -21 18 -36 14 -12 -3 -28 1 -37 10 -20 20 -37 20 -37 1 0 -11
-11 -15 -40 -15 -29 0 -40 4 -40 15 0 8 5 15 11 15 5 0 7 5 4 10 -3 6 -26 10
-51 10 l-44 0 0 70 c0 56 -3 70 -15 70 -11 0 -15 11 -15 40 0 38 -2 40 -29 40
-37 0 -100 39 -101 63 0 11 -8 17 -25 17 -22 0 -25 -4 -25 -40 0 -30 -4 -40
-16 -40 -12 0 -15 10 -13 48 l3 47 -41 3 c-37 3 -42 6 -45 30 -3 23 -8 27 -40
30 -29 2 -37 8 -40 24 -3 20 -5 19 -37 -13 -22 -21 -36 -29 -39 -21 -2 8 -29
12 -83 12 -58 0 -79 3 -79 13 0 15 -65 41 -79 33 -5 -4 -17 1 -26 10 -13 13
-14 19 -4 25 9 5 4 15 -19 35 -27 24 -32 35 -32 74 0 27 -9 61 -22 88 -21 38
-27 42 -60 42 -38 0 -38 0 -38 40 0 33 -3 40 -20 40 -13 0 -20 -7 -20 -20 0
-23 -20 -18 -37 10 -11 16 -10 18 7 15 11 -2 20 0 20 5 0 5 7 7 15 4 8 -4 15
-1 15 5 0 7 -20 11 -49 11 -26 0 -70 4 -97 9 -27 5 -191 12 -364 16 l-315 6
-505 -503 c-278 -276 -697 -693 -931 -926 -460 -457 -423 -426 -478 -395 -8 5
55 80 129 153 328 329 602 611 604 622 10 50 43 87 66 73 4 -2 15 4 24 14 17
18 17 20 -3 40 -22 22 -27 41 -11 41 6 0 10 5 10 10 0 16 -60 12 -66 -4 -9
-24 -34 -28 -34 -6 0 13 7 20 20 20 17 0 20 7 20 44 0 29 -6 51 -17 62 -17 17
-18 17 -21 -4 -2 -12 -6 -22 -8 -22 -12 0 -34 30 -34 44 0 9 -7 16 -16 16 -9
0 -14 6 -11 13 2 6 13 10 23 9 15 -3 16 -1 7 9 -10 10 -21 4 -57 -27 -24 -21
-45 -43 -45 -48 -1 -5 5 -3 13 3 8 7 16 8 18 4 3 -4 3 -3 2 4 -2 6 4 17 12 24
12 10 14 8 11 -7 -5 -32 -17 -44 -40 -40 -14 2 -32 -6 -49 -22 -23 -21 -26
-28 -15 -41 11 -14 10 -14 -5 -2 -16 12 -22 9 -55 -23 -21 -20 -43 -36 -49
-36 -7 0 -14 -6 -17 -14 -3 -8 -16 -20 -29 -27 -18 -9 695 716 887 902 l40 39
-491 0 -491 0 -243 -247 c-134 -137 -433 -439 -664 -673 -366 -370 -681 -693
-1014 -1040 l-91 -95 -1 -661 0 -661 -32 6 -33 7 -2 676 -3 676 392 403 c216
222 509 523 652 669 144 146 365 373 491 504 127 132 249 259 271 282 27 27
38 46 32 52 -6 6 -6 12 1 16 6 4 11 2 11 -4 0 -6 5 -8 10 -5 8 5 7 11 -1 21
-9 11 -9 14 1 14 8 0 11 3 8 6 -4 3 -17 -1 -30 -9 -12 -8 -33 -18 -45 -22 -18
-5 -22 -3 -17 9 3 9 12 12 22 8 14 -5 15 -3 4 10 -11 13 -8 17 20 23 l33 8
-30 4 c-16 3 -34 9 -39 14 -6 5 -55 9 -110 9 l-100 0 -202 -202 c-491 -494
-742 -738 -759 -738 -10 0 -15 -3 -12 -6 9 -9 -11 -44 -25 -44 -7 0 -5 7 4 18
9 9 14 25 13 35 -2 9 1 14 7 11 5 -3 8 2 6 12 -2 11 7 23 22 31 14 7 21 13 16
13 -5 0 184 194 420 430 236 237 430 434 431 438 2 4 -175 9 -393 11 l-395 3
-728 -728 c-719 -719 -782 -781 -767 -756 12 21 -5 37 -20 18 -14 -19 -60 -13
-48 6 4 7 9 6 14 -2 6 -9 13 -7 29 9 18 18 22 19 27 6 8 -20 17 -19 31 4 10
17 9 18 -10 14 -16 -3 -18 -2 -9 5 11 7 11 10 -2 15 -8 3 -17 1 -20 -6 -3 -8
-5 -7 -5 2 -1 8 151 168 337 355 186 188 494 499 684 691 l347 350 -177 7
-177 8 -64 -65 c-35 -36 -68 -65 -74 -65 -6 0 -7 -3 -4 -7 8 -8 -11 -33 -25
-33 -6 0 -8 9 -5 20 3 11 1 18 -4 14 -5 -3 -9 -12 -9 -20 0 -8 -12 -20 -27
-26 -22 -9 -24 -12 -10 -15 21 -5 23 -20 2 -20 -8 0 -15 5 -15 10 0 6 -9 2
-20 -8 -15 -13 -17 -21 -9 -31 6 -7 8 -18 4 -24 -11 -18 -21 -11 -20 14 0 17
32 56 105 130 58 58 107 111 108 116 4 10 -3 11 -148 12 -47 0 -66 3 -42 5 23
2 42 9 42 14 0 13 -29 57 -57 89 l-23 25 0 -23 c0 -28 -8 -28 -31 -1 -12 14
-26 20 -39 16 -14 -4 -29 2 -43 16 l-21 21 24 7 c22 6 21 7 -10 9 -29 1 -32 3
-15 10 13 6 -15 10 -85 12 -230 6 1570 13 4320 16 1861 1 2940 -1 3020 -8z
m-7537 -7 c-13 -2 -35 -2 -50 0 -16 2 -5 4 22 4 28 0 40 -2 28 -4z m4797 -243
c0 -5 -3 -9 -7 -9 -26 4 -53 -2 -48 -11 4 -6 10 -8 15 -5 5 3 11 1 14 -4 7
-11 -13 -9 -33 3 -12 8 -11 11 4 23 22 15 55 17 55 3z m-157 -17 c-13 -2 -33
-2 -45 0 -13 2 -3 4 22 4 25 0 35 -2 23 -4z m190 -10 c-7 -2 -13 -13 -13 -24
0 -10 -4 -19 -10 -19 -13 0 -13 6 0 31 6 10 16 19 23 18 9 0 9 -2 0 -6z
m-2513 -53 c0 -5 -5 -10 -11 -10 -5 0 -7 5 -4 10 3 6 8 10 11 10 2 0 4 -4 4
-10z m-1935 -170 c-3 -5 -12 -10 -18 -10 -7 0 -6 4 3 10 19 12 23 12 15 0z
m-20 -59 c3 -5 2 -12 -3 -15 -5 -3 -9 1 -9 9 0 17 3 19 12 6z m5735 -582 c0
-5 -4 -9 -10 -9 -5 0 -10 7 -10 16 0 8 5 12 10 9 6 -3 10 -10 10 -16z m-3020
-32 c0 -5 -4 -5 -10 -2 -5 3 -10 14 -10 23 0 15 2 15 10 2 5 -8 10 -19 10 -23z
m-60 -7 c0 -5 -4 -10 -10 -10 -5 0 -10 5 -10 10 0 6 5 10 10 10 6 0 10 -4 10
-10z m-2106 -146 c3 -8 2 -12 -4 -9 -6 3 -10 10 -10 16 0 14 7 11 14 -7z m37
-7 c-10 -9 -11 -8 -5 6 3 10 9 15 12 12 3 -3 0 -11 -7 -18z m-51 -18 c0 -6 -4
-7 -10 -4 -5 3 -10 11 -10 16 0 6 5 7 10 4 6 -3 10 -11 10 -16z m-1218 -291
c-7 -7 -12 -8 -12 -2 0 14 12 26 19 19 2 -3 -1 -11 -7 -17z m23 -68 c3 -5 -1
-10 -10 -10 -9 0 -13 5 -10 10 3 6 8 10 10 10 2 0 7 -4 10 -10z m-55 -20 c7
11 10 11 10 2 0 -8 5 -10 13 -6 8 6 8 3 -2 -9 -10 -13 -18 -14 -32 -6 -20 10
-23 4 -20 -33 1 -10 -1 -18 -6 -18 -4 0 -8 15 -8 34 0 19 3 32 8 29 4 -2 7 2
7 9 0 9 3 9 10 -2 9 -13 11 -13 20 0z m-107 -62 l-6 -33 22 23 c26 27 35 28
22 3 -6 -10 -8 -21 -5 -24 3 -3 0 -15 -8 -26 -8 -12 -18 -18 -21 -14 -4 3 -7
-1 -7 -9 0 -15 -92 -108 -106 -108 -14 0 -44 33 -44 47 0 11 144 168 157 172
1 1 0 -14 -4 -31z m8057 -598 c0 -5 -4 -10 -10 -10 -5 0 -10 5 -10 10 0 6 5
10 10 10 6 0 10 -4 10 -10z m707 -1365 c35 -17 82 -53 120 -92 40 -41 63 -59
67 -51 4 7 4 2 2 -10 -3 -13 4 -52 15 -85 30 -90 23 -201 -17 -281 -38 -77
-110 -148 -193 -189 -105 -52 -260 -50 -348 5 l-33 20 27 35 c18 23 23 37 15
42 -7 4 -8 12 -2 21 5 9 5 19 -2 27 -8 10 -6 13 6 13 16 0 16 1 2 16 -27 26
-18 24 42 -12 53 -33 62 -35 128 -32 84 4 137 33 181 99 38 57 44 157 15 215
-42 83 -110 129 -205 140 -56 7 -57 7 -57 40 0 18 6 34 13 37 9 3 9 7 0 19
-10 12 -9 19 5 37 15 20 24 22 89 18 52 -3 87 -12 130 -32z m423 -9 c0 -3 -4
-8 -10 -11 -5 -3 -10 -1 -10 4 0 6 5 11 10 11 6 0 10 -2 10 -4z m-270 -78 c0
-6 -6 -5 -15 2 -8 7 -15 14 -15 16 0 2 7 1 15 -2 8 -4 15 -11 15 -16z m610
-253 c9 -10 9 -15 1 -15 -6 0 -11 6 -12 13 0 6 -4 3 -9 -8 -8 -19 -9 -19 -9 3
-1 25 11 29 29 7z m-55 -5 c3 -5 1 -10 -4 -10 -6 0 -11 5 -11 10 0 6 2 10 4
10 3 0 8 -4 11 -10z m-9461 -272 c-3 -4 1 -8 8 -8 23 0 471 -457 463 -471 -5
-8 -4 -10 3 -5 6 4 30 -13 54 -37 113 -116 180 -189 154 -167 -25 21 -28 22
-22 6 5 -15 4 -17 -8 -7 -11 9 -15 9 -20 -1 -3 -7 -3 2 0 20 6 36 3 39 -20 16
-17 -17 -36 -11 -36 12 0 8 -4 14 -10 14 -5 0 -10 -6 -10 -12 0 -10 -3 -9 -9
1 -9 14 -3 51 8 49 15 -2 22 3 16 12 -3 6 -15 6 -29 0 -17 -6 -29 -5 -42 5
-12 9 -14 14 -6 15 7 0 10 5 7 10 -3 6 -1 10 4 10 6 0 11 4 11 9 0 6 -9 9 -19
8 -11 0 -18 -4 -15 -8 2 -4 1 -14 -2 -23 -5 -12 -9 -13 -19 -3 -7 7 -11 15 -8
20 2 4 -2 7 -9 7 -7 0 -40 24 -72 54 -52 47 -58 56 -47 70 11 13 11 16 0 16
-11 0 -11 3 1 11 13 9 13 10 0 6 -8 -2 -14 -12 -12 -22 2 -10 -2 -15 -10 -13
-7 3 -14 14 -16 26 -2 11 -11 26 -20 34 -15 12 -16 11 -3 -4 8 -11 9 -18 3
-18 -6 0 -14 4 -17 10 -8 13 14 52 26 45 5 -4 9 -1 9 5 0 6 5 8 12 4 7 -4 8
-3 4 4 -5 9 -13 9 -27 1 -12 -6 -23 -8 -26 -5 -3 3 1 8 10 12 15 5 15 7 1 21
-14 14 -17 14 -32 0 -15 -15 -17 -15 -36 1 -20 16 -20 16 -6 -2 13 -17 13 -19
0 -14 -8 3 -15 17 -15 31 1 28 -10 36 -18 15 -2 -7 -7 -10 -11 -7 -4 4 0 14 9
22 18 18 20 31 3 21 -7 -4 -8 -3 -4 4 4 6 13 9 21 6 8 -4 12 -11 8 -17 -3 -6
-1 -7 5 -3 11 7 6 36 -6 34 -23 -2 -33 4 -29 17 4 8 2 17 -2 19 -5 3 -8 -7 -8
-22 0 -50 -3 -63 -13 -57 -6 4 -8 10 -5 15 6 9 -13 24 -30 25 -5 1 -9 6 -8 13
2 7 -4 9 -13 5 -14 -5 -15 -3 -6 14 9 15 8 20 -3 20 -8 0 -12 -4 -9 -9 3 -4 1
-8 -3 -8 -13 0 -38 43 -38 65 -1 15 -7 19 -25 18 l-25 -3 23 12 c12 6 22 15
22 20 0 12 -14 10 -29 -4 -11 -11 -12 -10 -6 1 6 11 3 13 -13 9 -27 -7 -37 5
-18 21 11 9 17 8 29 -4 9 -8 18 -11 21 -6 3 5 -1 12 -10 15 -8 3 -13 10 -9 16
3 5 -3 18 -15 30 -22 22 -25 19 -10 -11 10 -18 3 -25 -23 -20 -5 1 -6 -3 -2
-9 10 -16 -11 -12 -25 5 -10 12 -10 15 4 15 16 0 21 12 9 23 -3 4 -13 1 -21
-6 -13 -10 -14 -9 -7 2 6 11 4 13 -7 8 -10 -3 -27 6 -44 24 -25 26 -25 34 -1
30 5 -1 6 3 3 8 -3 5 -14 7 -24 4 -23 -6 -63 38 -59 65 4 27 13 36 27 27 8 -5
6 -11 -5 -19 -14 -10 -13 -12 9 -11 14 1 29 5 33 10 5 4 3 5 -3 2 -6 -3 -18 7
-28 24 -9 16 -21 27 -25 25 -4 -3 -8 2 -8 10 0 9 58 -42 128 -112 70 -70 126
-131 123 -136z m-264 232 c0 -5 -5 -10 -11 -10 -5 0 -7 5 -4 10 3 6 8 10 11
10 2 0 4 -4 4 -10z m9821 -47 c13 -16 12 -17 -3 -4 -17 13 -22 21 -14 21 2 0
10 -8 17 -17z m186 -139 c-3 -3 -12 -4 -19 -1 -8 3 -5 6 6 6 11 1 17 -2 13 -5z
m18 -24 c-3 -5 -11 -10 -16 -10 -6 0 -7 5 -4 10 3 6 11 10 16 10 6 0 7 -4 4
-10z m31 -27 c4 -10 6 -24 5 -32 -1 -8 3 -17 10 -22 8 -5 1 -7 -19 -7 -35 1
-40 9 -17 28 11 9 12 17 4 31 -5 11 -6 19 0 19 5 0 12 -8 17 -17z m-1416 -27
c0 -3 -4 -8 -10 -11 -5 -3 -10 -1 -10 4 0 6 5 11 10 11 6 0 10 -2 10 -4z
m1467 -13 c7 -10 18 -27 25 -38 11 -19 10 -19 -13 -3 -13 9 -23 21 -21 27 1 6
-2 11 -8 11 -5 0 -10 5 -10 10 0 15 11 12 27 -7z m10 -83 c4 -14 11 -19 23
-15 12 4 22 -1 28 -11 6 -11 11 -13 16 -5 5 8 13 8 27 1 27 -15 24 -29 -7 -27
-15 1 -29 -4 -32 -12 -3 -9 1 -11 15 -7 11 3 27 -1 39 -10 18 -15 18 -15 -8
-11 -15 2 -25 0 -22 -5 4 -5 -3 -18 -15 -29 -20 -19 -21 -19 -42 2 -16 16 -18
23 -9 29 9 6 6 14 -10 30 -16 16 -25 19 -30 11 -5 -9 -16 -8 -43 5 -35 17 -49
34 -27 34 6 0 10 6 10 14 0 31 79 36 87 6z m157 -96 c9 -8 16 -20 16 -25 0 -5
-9 0 -20 11 -19 19 -25 30 -16 30 3 0 12 -7 20 -16z m-9759 -54 c3 -5 -1 -10
-10 -10 -9 0 -13 5 -10 10 3 6 8 10 10 10 2 0 7 -4 10 -10z m-18 -42 c-3 -8
-6 -5 -6 6 -1 11 2 17 5 13 3 -3 4 -12 1 -19z m1582 -15 c-1 -38 -1 -38 -9 -9
-8 27 -6 46 6 46 2 0 4 -17 3 -37z m18 -195 c-2 -13 -4 -3 -4 22 0 25 2 35 4
23 2 -13 2 -33 0 -45z m8150 -95 c-3 -2 -13 -3 -23 -1 -16 3 -16 4 2 22 18 18
19 18 22 2 2 -10 1 -20 -1 -23z m53 -41 c0 -32 -5 -41 -31 -56 -27 -16 -33
-16 -45 -4 -16 16 -10 44 12 52 9 3 14 -1 14 -14 0 -11 5 -20 10 -20 6 0 10
18 10 40 0 29 4 40 15 40 11 0 15 -11 15 -38z m-9363 -49 c-4 -3 -2 -12 5 -20
8 -11 7 -12 -6 -7 -9 3 -16 9 -16 13 0 9 11 21 18 21 3 0 2 -3 -1 -7z m51 -28
c-3 -3 -9 2 -12 12 -6 14 -5 15 5 6 7 -7 10 -15 7 -18z m45 -33 c20 -21 23
-29 12 -29 -8 0 -13 2 -11 5 6 6 -17 31 -25 26 -3 -2 -6 3 -6 11 0 19 -1 20
30 -13z m-5 -57 c-3 -3 -9 2 -12 12 -6 14 -5 15 5 6 7 -7 10 -15 7 -18z m38
-5 c0 -12 -4 -16 -9 -11 -5 5 -6 14 -3 20 10 15 12 14 12 -9z m-25 -37 c13
-16 12 -17 -3 -4 -10 7 -18 15 -18 17 0 8 8 3 21 -13z m1119 -143 c0 -5 -4
-10 -10 -10 -5 0 -10 5 -10 10 0 6 5 10 10 10 6 0 10 -4 10 -10z m-243 -6 c-3
-3 -12 -4 -19 -1 -8 3 -5 6 6 6 11 1 17 -2 13 -5z m-226 -53 c-9 -16 -8 -18 9
-14 11 3 20 0 20 -6 0 -6 11 -11 25 -11 14 0 25 -5 25 -11 0 -5 5 -7 10 -4 6
3 10 2 10 -4 0 -6 16 -13 35 -17 19 -3 35 -10 35 -15 0 -5 -12 -4 -26 1 -36
14 -52 12 -31 -4 16 -12 14 -14 -19 -21 -47 -8 -202 -61 -217 -74 -21 -17 -52
-17 -52 -1 0 26 -61 94 -75 85 -6 -4 -10 -3 -10 0 0 10 190 95 221 99 16 1 32
6 36 9 12 13 14 7 4 -12z m-2026 -90 c3 -5 2 -12 -3 -15 -5 -3 -9 1 -9 9 0 17
3 19 12 6z m1755 -15 c0 -3 -4 -8 -10 -11 -5 -3 -10 -1 -10 4 0 6 5 11 10 11
6 0 10 -2 10 -4z m-1700 -71 c13 -14 21 -25 18 -25 -2 0 -15 11 -28 25 -13 14
-21 25 -18 25 2 0 15 -11 28 -25z m52 -12 c19 -17 25 -49 7 -38 -6 4 -8 9 -5
12 3 4 -4 14 -16 24 -11 11 -17 19 -13 19 5 0 17 -7 27 -17z m68 -69 c0 -8
-19 -13 -24 -6 -3 5 1 9 9 9 8 0 15 -2 15 -3z m1284 -110 c3 -8 2 -12 -3 -9
-5 3 -12 1 -16 -5 -3 -5 1 -10 10 -10 12 0 14 -4 5 -19 -15 -29 -12 -41 11
-41 13 0 18 4 13 13 -6 9 -4 9 8 -1 11 -9 18 -10 23 -2 3 5 12 10 18 10 9 0 9
-2 0 -8 -7 -5 -9 -13 -3 -21 5 -9 -1 -27 -17 -53 -14 -21 -28 -38 -30 -38 -2
0 -1 5 3 12 4 7 3 8 -5 4 -7 -4 -10 -13 -8 -19 7 -19 -12 -47 -27 -41 -11 4
-13 0 -9 -18 6 -23 6 -23 -15 -4 -12 10 -21 21 -20 25 2 19 -4 21 -18 6 -10
-10 -30 -15 -54 -13 -34 2 -37 4 -29 20 12 22 14 22 33 2 9 -8 16 -11 16 -5 0
5 -6 16 -14 23 -11 11 -11 17 -1 31 14 20 26 22 21 5 -1 -7 -1 -9 2 -4 2 4 9
2 14 -5 8 -11 8 -10 4 4 -3 10 0 30 7 45 8 15 12 34 10 43 -2 9 3 22 12 29 13
11 16 11 13 0 -2 -7 3 -15 10 -17 8 -3 12 4 10 24 -2 25 7 53 17 53 1 0 6 -7
9 -16z m-1024 -152 c0 -3 -7 1 -15 8 -14 12 -20 7 -15 -15 1 -5 -2 -6 -7 -2
-4 5 -8 12 -8 15 -1 18 -27 52 -36 47 -10 -7 -13 8 -3 18 6 6 84 -61 84 -71z
m950 64 c0 -2 -7 -9 -15 -16 -13 -11 -14 -10 -9 4 5 14 24 23 24 12z m-920
-96 c11 -11 20 -26 20 -32 0 -7 -7 -3 -15 9 -9 13 -23 27 -33 32 -10 6 -12 11
-4 11 6 0 21 -9 32 -20z m8555 -470 c4 -6 1 -9 -7 -8 -8 2 -12 -5 -10 -17 2
-18 2 -19 -8 -2 -11 17 -6 37 10 37 5 0 12 -5 15 -10z m-102 -47 c-7 -2 -19
-2 -25 0 -7 3 -2 5 12 5 14 0 19 -2 13 -5z m177 -43 c-13 -9 -13 -11 0 -20 8
-5 21 -8 28 -5 6 2 12 0 12 -6 0 -17 -42 -5 -56 16 -12 19 -11 21 9 22 17 2
19 0 7 -7z m8 -177 c-2 -10 -10 -18 -18 -18 -10 0 -16 -12 -18 -32 -2 -18 -7
-33 -13 -33 -12 0 -11 12 3 60 9 28 19 40 31 40 12 0 17 -6 15 -17z m-2700
-257 c68 -35 92 -98 62 -161 -39 -81 -132 -101 -196 -42 -66 60 -55 149 25
196 42 24 72 26 109 7z m2802 -26 c-6 -11 -15 -18 -21 -14 -6 4 -6 11 2 20 17
21 31 17 19 -6z m-52 -35 c-3 -3 -9 2 -12 12 -6 14 -5 15 5 6 7 -7 10 -15 7
-18z m42 -15 c0 -5 -7 -10 -16 -10 -8 0 -12 5 -9 10 3 6 10 10 16 10 5 0 9 -4
9 -10z m-6537 -15 c87 -18 157 -57 219 -120 76 -77 77 -73 -8 -143 -41 -34
-76 -62 -79 -62 -2 0 -23 18 -46 39 -60 58 -120 83 -209 89 -102 6 -170 -20
-235 -89 -76 -81 -90 -123 -90 -264 0 -111 2 -124 28 -177 30 -62 83 -115 149
-150 35 -18 60 -22 133 -23 78 0 98 4 149 27 32 16 74 41 92 58 19 16 38 30
42 30 13 0 142 -110 142 -121 0 -20 -103 -110 -159 -138 -334 -169 -704 -8
-795 345 -25 98 -21 240 9 331 94 280 363 431 658 368z m982 0 c67 -17 196
-78 219 -104 13 -14 9 -24 -35 -96 -27 -44 -53 -80 -57 -80 -4 0 -46 20 -95
44 -75 38 -98 45 -166 49 -68 4 -84 1 -119 -18 -62 -35 -80 -95 -42 -142 20
-26 60 -42 254 -104 190 -60 264 -122 302 -250 19 -68 15 -132 -16 -201 -24
-56 -90 -127 -140 -153 -145 -75 -379 -67 -546 18 -73 37 -144 88 -144 104 0
10 20 36 97 127 l29 34 50 -38 c89 -68 200 -101 317 -93 81 5 133 39 143 94
13 72 -43 113 -236 169 -154 45 -216 72 -268 119 -60 54 -85 115 -86 206 -2
156 91 270 257 315 69 18 209 19 282 0z m1073 0 c238 -56 386 -249 399 -520 5
-94 2 -122 -17 -192 -36 -133 -100 -226 -207 -300 -29 -20 -53 -41 -53 -46 0
-5 50 -63 110 -128 61 -65 110 -123 110 -129 0 -6 -48 -10 -128 -10 l-127 0
-109 109 -108 108 -66 6 c-221 18 -392 165 -457 391 -22 75 -22 237 0 321 50
194 191 339 378 390 69 18 197 18 275 0z m4520 6 c11 -7 11 -9 -1 -14 -16 -6
-27 0 -27 15 0 10 11 10 28 -1z m60 -8 c-10 -2 -18 -14 -18 -26 -1 -20 -2 -20
-11 -4 -13 22 -3 37 24 36 17 -1 18 -2 5 -6z m-38 -58 c13 -14 21 -27 19 -30
-3 -2 -17 9 -33 25 -15 17 -24 30 -19 30 5 0 20 -11 33 -25z m435 -5 c3 -6 -1
-7 -9 -4 -18 7 -21 14 -7 14 6 0 13 -4 16 -10z m-345 -32 c0 -13 -23 -5 -28
10 -2 7 2 10 12 6 9 -3 16 -11 16 -16z m30 -43 c0 -8 -2 -15 -4 -15 -2 0 -6 7
-10 15 -3 8 -1 15 4 15 6 0 10 -7 10 -15z m424 -80 c3 -8 1 -15 -4 -15 -6 0
-10 7 -10 15 0 8 2 15 4 15 2 0 6 -7 10 -15z m66 0 c0 -9 -6 -12 -15 -9 -8 4
-12 10 -9 15 8 14 24 10 24 -6z m25 -35 c-3 -5 -11 -10 -16 -10 -6 0 -7 5 -4
10 3 6 11 10 16 10 6 0 7 -4 4 -10z m-4383 -272 c3 -241 5 -277 21 -310 34
-67 129 -88 215 -47 81 39 82 46 82 357 l0 272 110 0 110 0 0 -415 0 -415 -23
-5 c-12 -3 -58 -5 -102 -3 l-80 3 -3 58 -3 58 -50 -45 c-130 -116 -320 -115
-422 4 -66 77 -69 98 -74 448 l-4 312 110 0 110 0 3 -272z m958 -142 l0 -414
-62 -7 c-35 -4 -83 -5 -108 -3 l-45 3 -3 418 -2 417 110 0 110 0 0 -414z m831
324 l-3 -84 -199 -238 -200 -238 211 0 210 0 0 -90 0 -90 -133 0 c-74 0 -228
-3 -344 -7 l-210 -6 -6 68 c-4 43 -2 75 5 89 6 11 63 84 127 161 64 77 153
185 197 240 l81 100 -196 0 -196 0 2 90 c2 50 3 91 3 93 0 1 147 1 328 0 l327
-3 -4 -85z m2649 59 c0 -6 -6 -6 -19 0 -10 6 -21 7 -25 4 -3 -3 -6 -2 -6 4 0
5 3 13 6 16 9 8 44 -11 44 -24z m-445 -9 c3 -5 2 -10 -4 -10 -5 0 -13 5 -16
10 -3 6 -2 10 4 10 5 0 13 -4 16 -10z m32 -15 c-4 -8 -12 -15 -19 -15 -9 0 -8
3 2 10 8 5 11 10 7 10 -5 0 -5 5 -2 11 10 15 19 3 12 -16z m375 -38 c-5 -47
-4 -49 19 -45 17 2 23 9 21 21 -3 17 -2 17 17 1 16 -14 17 -21 8 -41 -6 -14
-16 -22 -25 -18 -7 3 -29 5 -48 5 l-34 0 0 54 0 55 -42 4 -43 4 48 1 c41 2 47
0 47 -19 0 -12 4 -17 11 -13 6 3 9 14 6 23 -2 10 1 18 8 18 8 0 10 -15 7 -50z
m128 -22 c11 -13 10 -14 -4 -9 -9 3 -16 10 -16 15 0 13 6 11 20 -6z m-420 -9
c0 -8 -7 -16 -15 -20 -13 -4 -14 -2 -5 14 13 23 20 26 20 6z m77 -40 c4 -3 3
-9 -1 -13 -4 -4 -11 -2 -15 5 -4 7 -15 10 -23 7 -9 -4 -19 -2 -22 4 -7 11 50
9 61 -3z m383 -17 c0 -6 -4 -7 -10 -4 -5 3 -10 11 -10 16 0 6 5 7 10 4 6 -3
10 -11 10 -16z m-386 -15 c20 -19 20 -25 1 -18 -8 4 -15 10 -15 15 0 4 -7 5
-17 2 -11 -4 -14 -3 -9 5 10 16 22 15 40 -4z m1 -34 c4 -6 10 -8 14 -6 4 3 13
1 21 -5 12 -7 11 -9 -5 -9 -11 1 -29 7 -39 15 -11 8 -15 15 -9 15 7 0 15 -5
18 -10z m90 -21 c11 -17 -1 -21 -15 -4 -8 9 -8 15 -2 15 6 0 14 -5 17 -11z
m-15 -24 c8 -10 9 -15 2 -15 -7 0 -9 -8 -5 -17 4 -13 0 -11 -15 6 -20 22 -21
41 -3 41 5 0 14 -7 21 -15z m-1402 -57 c-7 -4 -9 -8 -5 -8 5 0 5 -5 1 -12 -8
-13 -22 14 -23 46 -1 19 0 19 19 1 16 -14 17 -20 8 -27z m1452 12 c0 -5 -2
-10 -4 -10 -3 0 -8 5 -11 10 -3 6 -1 10 4 10 6 0 11 -4 11 -10z m40 0 c0 -5
-5 -10 -11 -10 -5 0 -7 5 -4 10 3 6 8 10 11 10 2 0 4 -4 4 -10z m-1166 -307
c160 -159 470 -466 688 -683 l398 -394 0 -963 c0 -935 -2 -1004 -29 -966 -3 5
-13 8 -21 8 -8 0 -18 4 -22 10 -4 5 -8 130 -8 276 0 146 -3 563 -7 926 l-6
661 -648 648 c-375 376 -656 664 -668 687 -20 37 -21 41 -5 58 10 11 21 19 27
19 5 0 140 -129 301 -287z m1151 277 c3 -5 1 -10 -4 -10 -6 0 -11 5 -11 10 0
6 2 10 4 10 3 0 8 -4 11 -10z m525 -124 c0 -3 -4 -8 -10 -11 -5 -3 -10 -1 -10
4 0 6 5 11 10 11 6 0 10 -2 10 -4z m30 -6 c0 -5 -5 -10 -11 -10 -5 0 -7 5 -4
10 3 6 8 10 11 10 2 0 4 -4 4 -10z m-13 -67 c-3 -3 -14 0 -24 6 -17 10 -17 10
0 11 9 0 18 8 18 18 1 10 3 8 6 -6 3 -13 2 -26 0 -29z m63 27 c0 -5 -4 -10
-10 -10 -5 0 -10 5 -10 10 0 6 5 10 10 10 6 0 10 -4 10 -10z m67 -61 c12 -12
7 -39 -8 -39 -4 0 -6 7 -3 15 4 8 1 15 -5 15 -6 0 -11 5 -11 10 0 13 13 13 27
-1z m-1790 -613 c78 -77 140 -143 137 -148 -3 -5 -2 -7 3 -6 10 3 233 -222
233 -235 0 -14 -42 20 -117 95 -40 40 -73 78 -73 85 0 7 -4 12 -9 11 -13 -4
-92 72 -86 83 4 5 0 9 -8 9 -19 0 -189 169 -181 181 3 5 -3 6 -12 2 -12 -4
-15 -3 -10 5 4 7 2 12 -3 12 -6 0 -11 6 -11 14 0 8 -8 17 -18 20 -10 4 -19 13
-19 21 0 21 10 13 174 -149z m1824 117 c13 -16 12 -17 -3 -4 -10 7 -18 15 -18
17 0 8 8 3 21 -13z m122 -106 c4 3 7 -1 7 -10 0 -22 -3 -21 -26 5 -12 14 -13
18 -3 10 9 -6 19 -9 22 -5z m-9279 -1163 c3 -8 2 -12 -4 -9 -6 3 -10 10 -10
16 0 14 7 11 14 -7z m6186 -284 c0 -5 -4 -10 -10 -10 -5 0 -10 5 -10 10 0 6 5
10 10 10 6 0 10 -4 10 -10z m3232 -32 l1 -43 7 45 c6 39 7 33 8 -37 2 -66 -1
-83 -12 -83 -10 0 -16 -14 -18 -42 -2 -24 -3 12 -4 80 0 67 3 122 8 122 4 0 9
-19 10 -42z m-3524 -12 c-18 -17 -58 -30 -58 -19 0 5 12 14 28 20 38 15 46 15
30 -1z m67 -15 c-6 -5 -19 -11 -29 -13 -15 -2 -11 -7 20 -23 21 -11 40 -23 42
-27 2 -4 10 -4 18 -1 8 3 14 1 14 -4 0 -14 -65 -34 -85 -26 -12 4 -16 3 -12
-4 7 -10 -23 -22 -70 -28 -15 -2 -20 1 -16 11 3 10 0 12 -10 8 -8 -3 -18 -1
-22 5 -3 6 1 11 9 11 9 0 16 8 16 18 0 10 14 26 33 36 17 9 43 23 57 31 28 17
49 20 35 6z m131 -43 c4 -7 4 -10 -1 -6 -4 4 -14 1 -22 -7 -8 -8 -19 -15 -25
-15 -6 0 0 9 13 20 29 23 26 23 35 8z m-339 -74 c-3 -3 -12 -4 -19 -1 -8 3 -5
6 6 6 11 1 17 -2 13 -5z m-132 -14 c-3 -5 -10 -10 -16 -10 -5 0 -9 5 -9 10 0
6 7 10 16 10 8 0 12 -4 9 -10z m70 -29 c-4 -7 -41 -11 -93 -10 l-87 1 60 10
c33 5 72 7 88 5 15 -2 27 1 27 6 0 6 3 8 6 4 3 -3 3 -10 -1 -16z m3905 -205
c0 -3 -4 -8 -10 -11 -5 -3 -10 -1 -10 4 0 6 5 11 10 11 6 0 10 -2 10 -4z m-10
-98 c0 -16 -3 -19 -11 -11 -6 6 -8 16 -5 22 11 17 16 13 16 -11z m-13 -65 c-3
-10 -5 -4 -5 12 0 17 2 24 5 18 2 -7 2 -21 0 -30z m-7 -50 c0 -14 -3 -23 -7
-19 -10 10 -11 46 -1 46 4 0 8 -12 8 -27z m-3076 -302 c6 -10 -40 -71 -53 -71
-4 0 -16 7 -27 16 -18 15 -18 15 3 5 12 -7 24 -7 27 -2 3 5 -1 12 -9 15 -13 5
-13 9 -3 26 13 20 52 27 62 11z m1776 -141 c0 -5 -4 -10 -10 -10 -5 0 -10 5
-10 10 0 6 5 10 10 10 6 0 10 -4 10 -10z m-93 -58 c-10 -10 -14 -22 -10 -26 5
-4 4 -6 -2 -5 -15 5 -55 -24 -55 -38 0 -16 6 -16 31 -2 11 5 18 13 15 17 -2 4
7 7 20 7 23 0 23 -1 5 -15 -10 -8 -17 -22 -16 -31 2 -10 -4 -16 -14 -16 -18 1
-63 -17 -61 -23 1 -3 -2 -13 -6 -23 -3 -10 -4 -20 -1 -24 8 -7 -18 -33 -32
-33 -6 0 -11 -4 -11 -10 0 -5 -11 -20 -25 -34 -14 -14 -25 -23 -25 -20 0 3 -6
-1 -14 -8 -8 -7 -12 -17 -9 -22 3 -4 -9 -5 -27 -1 -23 5 -30 4 -26 -4 4 -6 11
-9 16 -6 5 3 11 1 15 -5 3 -5 -1 -10 -9 -10 -8 0 -17 4 -21 9 -6 11 -45 10
-45 -1 0 -4 9 -8 19 -8 11 0 23 -5 26 -10 4 -6 -5 -10 -24 -8 -17 1 -31 6 -31
11 0 4 -5 5 -11 1 -33 -20 13 32 166 190 93 96 171 173 174 171 2 -3 -3 -13
-12 -23z m-66 -159 c-8 -15 -10 -15 -11 -2 0 17 10 32 18 25 2 -3 -1 -13 -7
-23z m-277 -199 c3 -8 2 -12 -4 -9 -6 3 -10 10 -10 16 0 14 7 11 14 -7z m-35
-50 c-6 -7 -15 -11 -21 -8 -5 3 -4 12 3 20 6 7 15 11 21 8 5 -3 4 -12 -3 -20z
m-39 -18 c0 -2 -8 -10 -17 -17 -16 -13 -17 -12 -4 4 13 16 21 21 21 13z
m-2845 -887 c-10 -16 -45 -31 -45 -19 0 5 7 10 15 10 8 0 15 7 15 16 0 8 5 12
10 9 6 -4 8 -11 5 -16z"/>
<path d="M7170 16253 c-14 -14 -19 -24 -11 -22 13 5 49 49 40 49 -2 0 -15 -12
-29 -27z"/>
<path d="M7106 16202 c-3 -5 1 -9 9 -9 8 0 15 4 15 9 0 4 -4 8 -9 8 -6 0 -12
-4 -15 -8z"/>
<path d="M12480 15659 c0 -21 4 -27 15 -23 9 4 20 14 25 24 8 14 5 19 -15 22
-22 5 -25 2 -25 -23z"/>
<path d="M9491 15623 c16 -27 26 -29 26 -8 0 8 -3 13 -5 10 -3 -3 -12 1 -20 8
-13 11 -14 9 -1 -10z"/>
<path d="M9650 15379 c0 -5 5 -7 10 -4 6 3 10 8 10 11 0 2 -4 4 -10 4 -5 0
-10 -5 -10 -11z"/>
<path d="M12895 15350 c4 -6 11 -8 16 -5 14 9 11 15 -7 15 -8 0 -12 -5 -9 -10z"/>
<path d="M9560 15287 l-23 -32 29 27 c15 15 26 30 23 33 -3 2 -16 -10 -29 -28z"/>
<path d="M11553 14726 c-18 -6 -33 -14 -33 -18 0 -11 -64 -10 -75 1 -14 13
-78 23 -91 14 -17 -12 -24 -175 -8 -169 35 13 96 25 164 31 41 4 78 12 82 19
10 15 10 124 1 128 -5 2 -23 -1 -40 -6z"/>
<path d="M14160 14100 c0 -11 44 -60 54 -60 2 0 2 10 -1 23 -8 33 -53 64 -53
37z"/>
<path d="M11525 13998 c-81 -48 -123 -149 -95 -233 50 -150 251 -187 353 -65
75 88 53 211 -49 283 -59 41 -152 48 -209 15z"/>
<path d="M14341 13944 c0 -11 3 -14 6 -6 3 7 2 16 -1 19 -3 4 -6 -2 -5 -13z"/>
<path d="M14791 13743 c-1 -18 19 -27 32 -13 9 10 8 12 -5 7 -9 -3 -19 -1 -22
6 -3 9 -5 9 -5 0z"/>
<path d="M15037 13614 c-14 -14 6 -24 48 -24 24 0 47 5 51 11 5 9 -4 10 -31 5
-25 -5 -35 -4 -30 3 7 12 -27 16 -38 5z"/>
<path d="M14994 13601 c4 -5 -3 -7 -13 -4 -14 3 -34 -8 -65 -38 -24 -24 -42
-47 -40 -51 3 -4 1 -8 -4 -8 -17 0 -32 -51 -32 -106 0 -172 193 -278 345 -190
67 40 99 93 103 176 4 72 -9 113 -50 160 -36 40 -109 82 -78 45 7 -8 18 -15
25 -15 6 0 12 -6 13 -12 0 -7 3 -26 6 -43 9 -57 -4 -93 -43 -117 -20 -12 -39
-27 -43 -32 -4 -7 -16 -3 -30 10 -13 11 -35 25 -50 32 -16 6 -28 16 -28 22 0
5 -11 10 -25 10 -21 0 -25 5 -25 30 0 17 7 33 18 39 16 10 16 10 0 11 -10 0
-18 5 -18 11 0 5 5 7 12 3 7 -4 8 -3 4 4 -4 7 4 14 20 18 17 4 22 9 14 14 -9
5 -9 9 -1 14 13 8 5 26 -10 26 -6 0 -8 -4 -5 -9z m-39 -41 c8 -14 -14 -42 -27
-34 -5 4 -5 11 1 18 6 7 8 16 4 19 -3 4 -1 7 5 7 6 0 14 -5 17 -10z"/>
<path d="M11285 13305 c-52 -51 -25 -105 68 -139 23 -8 139 -51 257 -95 326
-120 742 -272 772 -281 17 -5 35 -3 54 7 36 18 44 30 44 69 0 57 20 48 -720
319 -146 53 -293 108 -327 121 -79 31 -117 31 -148 -1z"/>
<path d="M10000 12970 c0 -5 5 -10 10 -10 6 0 10 5 10 10 0 6 -4 10 -10 10 -5
0 -10 -4 -10 -10z"/>
<path d="M10627 12937 c-3 -8 -1 -20 4 -28 6 -10 9 -7 9 14 0 29 -5 35 -13 14z"/>
<path d="M11165 12888 c-30 -16 -45 -39 -45 -69 0 -58 -7 -55 489 -235 207
-76 237 -84 261 -74 28 12 50 46 50 80 0 48 -37 67 -378 190 -183 66 -338 120
-345 120 -7 0 -21 -6 -32 -12z"/>
<path d="M15150 12883 c1 -10 50 -46 50 -37 0 6 -40 44 -47 44 -1 0 -3 -3 -3
-7z"/>
<path d="M10572 12798 c-6 -7 -12 -26 -15 -43 l-4 -30 -2 33 c0 20 -5 31 -11
27 -6 -4 -8 -16 -5 -26 4 -11 2 -25 -3 -32 -5 -7 -12 -24 -16 -39 -5 -24 -3
-28 14 -28 11 0 20 -4 20 -10 0 -5 -9 -10 -20 -10 -11 0 -20 5 -20 10 0 6 -5
9 -12 8 -13 -3 -19 -18 -58 -123 -12 -33 -32 -87 -45 -120 -13 -33 -34 -89
-48 -125 -14 -36 -36 -96 -50 -135 -60 -166 -115 -315 -200 -535 -155 -404
-177 -463 -177 -472 0 -4 600 -8 1333 -8 1458 0 1415 2 1597 -59 287 -96 565
-336 695 -598 33 -66 34 -67 40 -38 13 57 33 121 74 233 l41 113 -28 11 c-15
6 -30 11 -34 10 -5 -1 -8 2 -8 7 0 5 -16 12 -35 15 -26 5 -35 12 -35 26 0 11
-4 20 -10 20 -5 0 -10 4 -10 9 0 21 -63 71 -89 71 -16 0 -40 11 -55 25 -30 28
-67 50 -78 47 -5 -1 -8 2 -8 7 0 14 -108 64 -125 57 -9 -3 -14 -2 -10 3 4 8
-58 55 -75 56 -24 3 -50 19 -55 34 -6 21 -96 64 -170 82 -27 6 -56 17 -64 23
-14 11 -76 30 -150 46 -24 6 -50 15 -57 21 -7 6 -26 8 -41 5 -18 -4 -41 0 -61
9 -17 9 -80 23 -138 30 -58 8 -111 19 -118 24 -6 5 -50 9 -98 10 -60 0 -94 4
-108 14 -14 10 -36 13 -66 9 -29 -3 -49 -1 -53 6 -4 8 -61 13 -156 16 -83 2
-153 5 -157 5 -5 1 -8 8 -8 16 0 9 -9 15 -25 15 -14 0 -25 4 -25 10 0 5 -12
13 -27 17 -29 7 -93 63 -73 63 6 0 9 4 6 9 -3 4 -16 6 -29 4 -30 -6 -58 24
-36 38 12 8 12 10 -1 19 -23 15 -7 12 77 -15 43 -14 84 -33 91 -42 6 -9 12
-12 12 -6 0 7 -5 15 -10 18 -6 3 3 18 20 32 29 24 35 47 24 89 -6 21 -74 65
-124 79 -51 14 -245 88 -254 96 -6 5 -18 9 -28 9 -10 0 -71 21 -136 46 -138
55 -170 64 -200 53 -17 -6 -28 -3 -42 11 -11 11 -20 22 -20 24 0 7 50 -7 56
-15 3 -5 10 -9 16 -9 6 0 1 8 -10 19 -12 10 -22 30 -22 45 0 19 -5 26 -20 26
-11 0 -20 5 -20 10 0 6 6 10 13 10 9 0 11 12 9 40 -3 32 -1 40 12 40 19 0 23
63 6 83 -6 7 -17 21 -25 32 -14 19 -14 19 -15 -7 0 -16 5 -28 10 -28 6 0 10
-13 10 -30 0 -16 -3 -30 -6 -30 -11 0 -34 29 -34 44 0 8 -13 28 -30 44 -35 35
-38 52 -10 52 11 0 20 4 20 9 0 13 -34 24 -38 12 -9 -27 -140 1 -164 34 -12
16 -9 25 7 25 11 0 15 11 15 40 0 29 4 40 15 40 12 0 15 16 15 80 0 67 -3 80
-16 80 -13 0 -15 9 -12 45 2 25 3 45 2 45 -1 0 -6 -6 -12 -12z m5 -169 c3 -16
1 -29 -4 -29 -6 0 -8 -10 -6 -22 2 -13 -1 -30 -7 -38 -9 -13 -11 -13 -20 0
-15 23 -12 70 5 76 17 7 20 35 6 50 -5 5 -12 20 -16 34 -5 21 -3 19 15 -8 11
-19 24 -47 27 -63z m236 -599 c3 -11 1 -18 -4 -14 -5 3 -9 12 -9 20 0 20 7 17
13 -6z m5 -125 c-3 -3 -9 2 -12 12 -6 14 -5 15 5 6 7 -7 10 -15 7 -18z m52
-34 c0 -5 -7 -14 -15 -21 -10 -9 -15 -9 -15 -1 0 6 5 11 11 11 5 0 7 5 4 10
-3 6 -1 10 4 10 6 0 11 -4 11 -9z m91 -26 c24 -9 51 -18 59 -22 8 -3 20 -7 25
-9 118 -38 256 -97 182 -79 -16 4 -27 3 -27 -3 0 -16 -92 -20 -127 -6 -18 7
-33 20 -33 28 0 10 -9 16 -22 16 -19 0 -20 2 -8 10 12 8 11 10 -7 10 -14 0
-23 -6 -23 -15 0 -8 -4 -15 -10 -15 -5 0 -10 8 -10 18 0 9 -9 23 -21 30 -11 7
-19 19 -16 26 4 9 -4 11 -25 8 -21 -3 -29 -1 -24 7 10 15 35 14 87 -4z m69
-95 c0 -5 -4 -10 -9 -10 -6 0 -13 5 -16 10 -3 6 1 10 9 10 9 0 16 -4 16 -10z
m208 -44 c-22 -16 -23 -26 -4 -26 8 0 18 -4 21 -10 4 -6 -6 -10 -24 -10 -20 0
-31 6 -33 18 -4 19 19 41 42 41 12 0 12 -2 -2 -13z m102 -6 c0 -5 -7 -7 -15
-4 -8 4 -15 8 -15 10 0 2 7 4 15 4 8 0 15 -4 15 -10z m175 -170 c3 -5 1 -10
-4 -10 -6 0 -11 5 -11 10 0 6 2 10 4 10 3 0 8 -4 11 -10z m1770 -488 c-3 -3
-11 0 -18 7 -9 10 -8 11 6 5 10 -3 15 -9 12 -12z m216 -123 c13 -26 7 -24 -22
7 -17 19 -19 23 -6 18 10 -3 22 -15 28 -25z"/>
<path d="M10496 12683 c-6 -14 -5 -15 5 -6 7 7 10 15 7 18 -3 3 -9 -2 -12 -12z"/>
<path d="M10640 12560 c0 -47 4 -80 10 -80 6 0 10 18 10 39 0 22 5 41 12 43 9
3 7 14 -5 41 -10 20 -20 37 -22 37 -3 0 -5 -36 -5 -80z"/>
<path d="M10997 12456 c-14 -12 -30 -38 -35 -58 -10 -35 -8 -38 23 -62 19 -14
74 -39 124 -56 105 -35 381 -134 598 -214 165 -61 188 -63 223 -19 23 29 24
42 9 76 -15 33 -52 53 -198 104 -194 69 -242 86 -434 157 -98 36 -182 68 -187
71 -5 3 -29 9 -53 14 -39 7 -49 5 -70 -13z"/>
<path d="M10960 12274 c0 -8 5 -12 10 -9 6 4 8 11 5 16 -9 14 -15 11 -15 -7z"/>
<path d="M11005 12279 c-4 -6 -4 -13 0 -17 3 -3 10 -1 14 6 4 7 16 10 27 6 16
-5 16 -4 4 5 -19 14 -37 14 -45 0z"/>
<path d="M10880 12220 c0 -11 5 -20 10 -20 6 0 10 9 10 20 0 11 -4 20 -10 20
-5 0 -10 -9 -10 -20z"/>
<path d="M10882 12080 c2 -8 14 -16 28 -17 23 -2 23 -2 5 6 -19 9 -19 10 3 10
34 1 26 16 -8 16 -22 0 -30 -4 -28 -15z"/>
<path d="M11465 11630 c3 -5 16 -10 28 -10 18 0 19 2 7 10 -20 13 -43 13 -35
0z"/>
<path d="M7875 11030 c-30 -8 -30 -8 8 -9 20 0 37 4 37 9 0 11 -2 11 -45 0z"/>
<path d="M14737 9813 c-8 -7 21 -43 34 -43 5 0 6 7 3 15 -4 8 -14 15 -23 15
-14 0 -14 2 -1 10 8 5 10 10 4 10 -6 0 -14 -3 -17 -7z"/>
<path d="M14720 9770 c0 -5 5 -10 11 -10 5 0 7 5 4 10 -3 6 -8 10 -11 10 -2 0
-4 -4 -4 -10z"/>
<path d="M14800 9755 c0 -9 6 -12 15 -9 8 4 12 10 9 15 -8 14 -24 10 -24 -6z"/>
<path d="M14836 9714 c-9 -24 -7 -28 9 -14 17 14 20 30 6 30 -5 0 -12 -7 -15
-16z"/>
<path d="M14953 9615 c0 -8 3 -13 5 -10 3 3 12 -1 21 -7 10 -8 9 -4 -3 10 -23
26 -23 26 -23 7z"/>
<path d="M14980 9550 c0 -5 5 -10 10 -10 6 0 10 5 10 10 0 6 -4 10 -10 10 -5
0 -10 -4 -10 -10z"/>
<path d="M15030 9533 c0 -4 12 -17 28 -30 21 -18 23 -22 10 -23 -10 0 -18 5
-18 12 0 6 -2 9 -5 7 -2 -3 -2 -15 2 -27 5 -19 8 -20 21 -10 8 7 18 12 21 10
3 -2 7 3 9 10 1 7 -14 23 -33 36 -19 12 -35 19 -35 15z"/>
<path d="M15455 9110 c-3 -5 -1 -10 4 -10 6 0 11 5 11 10 0 6 -2 10 -4 10 -3
0 -8 -4 -11 -10z"/>
<path d="M15615 8980 c10 -11 20 -18 23 -16 5 6 -23 36 -34 36 -4 0 1 -9 11
-20z"/>
<path d="M16347 6873 c-4 -3 -7 -17 -7 -30 0 -12 -4 -23 -9 -23 -17 0 -22 -38
-15 -110 7 -75 24 -96 24 -30 0 29 4 40 15 40 11 0 15 11 15 40 0 29 4 40 15
40 10 0 15 10 15 30 0 28 2 30 40 30 22 0 40 5 40 10 0 11 -123 14 -133 3z"/>
<path d="M6050 14700 c0 -5 5 -10 11 -10 5 0 7 5 4 10 -3 6 -8 10 -11 10 -2 0
-4 -4 -4 -10z"/>
<path d="M5857 12313 c-3 -5 5 -17 16 -28 l20 -20 -11 21 c-6 12 -8 24 -5 28
3 3 1 6 -5 6 -6 0 -13 -3 -15 -7z"/>
<path d="M5955 12219 c-4 -6 -5 -12 -2 -15 2 -3 7 2 10 11 7 17 1 20 -8 4z"/>
<path d="M6106 12108 c4 -34 4 -34 13 -19 7 11 11 9 20 -7 9 -18 9 -21 -3 -16
-19 7 -31 -15 -16 -29 10 -9 11 -9 5 2 -6 10 -4 13 7 9 8 -3 19 2 25 12 9 14
6 22 -19 44 -16 14 -31 26 -32 26 -2 0 -2 -10 0 -22z"/>
<path d="M6174 12048 c-4 -7 -3 -10 1 -5 5 4 18 -1 29 -10 21 -18 21 -18 2 5
-22 26 -23 26 -32 10z"/>
<path d="M6315 11900 c-3 -6 1 -7 9 -4 18 7 21 14 7 14 -6 0 -13 -4 -16 -10z"/>
<path d="M6515 11700 c-3 -5 -1 -10 4 -10 6 0 11 5 11 10 0 6 -2 10 -4 10 -3
0 -8 -4 -11 -10z"/>
<path d="M6536 11682 c-2 -4 -1 -14 4 -22 7 -11 9 -9 7 8 -1 24 -3 26 -11 14z"/>
<path d="M6655 11538 c-12 -14 -14 -18 -4 -10 13 10 19 10 28 -1 6 -8 8 -17 4
-20 -3 -4 -1 -7 5 -7 19 0 21 15 3 38 l-17 23 -19 -23z"/>
<path d="M7295 10980 c3 -5 11 -10 16 -10 6 0 7 5 4 10 -3 6 -11 10 -16 10 -6
0 -7 -4 -4 -10z"/>
<path d="M7360 10910 c0 -5 7 -10 16 -10 8 0 12 5 9 10 -3 6 -10 10 -16 10 -5
0 -9 -4 -9 -10z"/>
<path d="M6961 10584 c-1 -6 5 -17 12 -23 10 -8 14 -7 14 4 0 8 -4 12 -8 9 -4
-2 -10 2 -12 8 -4 8 -6 9 -6 2z"/>
<path d="M6854 10500 c0 -13 4 -16 10 -10 7 7 7 13 0 20 -6 6 -10 3 -10 -10z"/>
<path d="M9995 9237 c-100 -33 -168 -97 -205 -193 -34 -85 -34 -247 -1 -319
34 -76 84 -130 149 -162 49 -24 69 -28 142 -28 75 0 91 3 138 30 66 36 96 70
136 155 28 59 31 74 31 165 0 91 -3 106 -31 165 -17 36 -46 82 -63 103 -66 74
-205 114 -296 84z"/>
<path d="M12745 6380 c-8 -13 5 -13 25 0 13 8 13 10 -2 10 -9 0 -20 -4 -23
-10z"/>
<path d="M14880 5180 c-8 -5 -12 -12 -9 -15 4 -3 12 1 19 10 14 17 11 19 -10
5z"/>
</g>
</svg>
